<?xml version="1.0" standalone="no"?>
<svg xmlns:xlink="http://www.w3.org/1999/xlink" id="wave" style="transform:rotate(180deg); transition: 0.3s" viewBox="0 0 1440 100" version="1.1" xmlns="http://www.w3.org/2000/svg"><defs><linearGradient id="sw-gradient-0" x1="0" x2="0" y1="1" y2="0"><stop stop-color="rgba(253, 247, 237, 1)" offset="0%"/><stop stop-color="rgba(253, 247, 237, 1)" offset="100%"/></linearGradient></defs><path style="transform:translate(0, 0px); opacity:1" fill="url(#sw-gradient-0)" d="M0,0L34.3,8.3C68.6,17,137,33,206,46.7C274.3,60,343,70,411,66.7C480,63,549,47,617,43.3C685.7,40,754,50,823,51.7C891.4,53,960,47,1029,46.7C1097.1,47,1166,53,1234,46.7C1302.9,40,1371,20,1440,18.3C1508.6,17,1577,33,1646,38.3C1714.3,43,1783,37,1851,41.7C1920,47,1989,63,2057,68.3C2125.7,73,2194,67,2263,68.3C2331.4,70,2400,80,2469,81.7C2537.1,83,2606,77,2674,71.7C2742.9,67,2811,63,2880,60C2948.6,57,3017,53,3086,43.3C3154.3,33,3223,17,3291,10C3360,3,3429,7,3497,11.7C3565.7,17,3634,23,3703,26.7C3771.4,30,3840,30,3909,33.3C3977.1,37,4046,43,4114,41.7C4182.9,40,4251,30,4320,31.7C4388.6,33,4457,47,4526,43.3C4594.3,40,4663,20,4731,16.7C4800,13,4869,27,4903,33.3L4937.1,40L4937.1,100L4902.9,100C4868.6,100,4800,100,4731,100C4662.9,100,4594,100,4526,100C4457.1,100,4389,100,4320,100C4251.4,100,4183,100,4114,100C4045.7,100,3977,100,3909,100C3840,100,3771,100,3703,100C3634.3,100,3566,100,3497,100C3428.6,100,3360,100,3291,100C3222.9,100,3154,100,3086,100C3017.1,100,2949,100,2880,100C2811.4,100,2743,100,2674,100C2605.7,100,2537,100,2469,100C2400,100,2331,100,2263,100C2194.3,100,2126,100,2057,100C1988.6,100,1920,100,1851,100C1782.9,100,1714,100,1646,100C1577.1,100,1509,100,1440,100C1371.4,100,1303,100,1234,100C1165.7,100,1097,100,1029,100C960,100,891,100,823,100C754.3,100,686,100,617,100C548.6,100,480,100,411,100C342.9,100,274,100,206,100C137.1,100,69,100,34,100L0,100Z"/></svg>